<?xml version="1.0" encoding="UTF-8"?>
<!DOCTYPE svg PUBLIC "-//W3C//DTD SVG 1.1//EN" "http://www.w3.org/Graphics/SVG/1.1/DTD/svg11.dtd">
<svg version="1.1" xmlns="http://www.w3.org/2000/svg" xmlns:xlink="http://www.w3.org/1999/xlink" width="58" height="58"  xml:space="preserve">
    <rect id="rectangle" stroke="none" fill="none" x="1" y="-3" width="64" height="84" />
    <path id="rectangle2" stroke="none" fill="rgb(190, 189, 186)" d="M 29,1.12 C 13.52,1.12 1,13.65 1,29.12 1,44.6 13.52,57.12 29,57.12 44.45,57.12 57,44.6 57,29.12 57,13.65 44.45,1.12 29,1.12 Z M 29,53.62 C 15.49,53.62 4.5,42.63 4.5,29.12 4.5,15.62 15.49,4.62 29,4.62 42.51,4.62 53.5,15.62 53.5,29.12 53.5,42.63 42.51,53.62 29,53.62 Z M 29,9.88 C 18.39,9.88 9.75,18.52 9.75,29.12 9.75,39.73 18.39,48.38 29,48.38 39.61,48.38 48.25,39.73 48.25,29.12 48.25,18.52 39.61,9.88 29,9.88 Z M 29,46.62 C 19.35,46.62 11.5,38.78 11.5,29.12 11.5,19.47 19.35,11.62 29,11.62 38.65,11.62 46.5,19.47 46.5,29.12 46.5,38.78 38.65,46.62 29,46.62 Z M 29,18.62 C 23.2,18.62 18.5,23.33 18.5,29.12 18.5,34.92 23.2,39.62 29,39.62 34.8,39.62 39.5,34.92 39.5,29.12 39.5,23.33 34.8,18.62 29,18.62 Z M 29,37.88 C 24.16,37.88 20.25,33.96 20.25,29.12 20.25,24.29 24.16,20.38 29,20.38 33.81,20.38 37.75,24.29 37.75,29.12 37.75,33.96 33.81,37.88 29,37.88 Z M 29,27.38 C 28.04,27.38 27.25,28.17 27.25,29.12 27.25,30.08 28.04,30.88 29,30.88 29.96,30.88 30.75,30.08 30.75,29.12 30.75,28.17 29.96,27.38 29,27.38 Z M 29,27.38" />
</svg>
