<?xml version="1.0" encoding="UTF-8"?>
<!DOCTYPE svg PUBLIC "-//W3C//DTD SVG 1.1//EN" "http://www.w3.org/Graphics/SVG/1.1/DTD/svg11.dtd">
<svg version="1.1" xmlns="http://www.w3.org/2000/svg" xmlns:xlink="http://www.w3.org/1999/xlink" width="58" height="58"  xml:space="preserve">
    <rect id="rectangle" stroke="none" fill="none" x="1" y="-3" width="64" height="84" />
    <path id="rectangle2" stroke="none" fill="rgb(176, 175, 172)" d="M 48.25,20.38 C 47.27,20.38 46.5,21.17 46.5,22.12 L 46.5,31.45 C 46.5,40.77 38.65,48.38 29,48.38 19.35,48.38 11.5,40.77 11.5,31.45 L 11.5,22.12 C 11.5,21.17 10.71,20.38 9.75,20.38 8.77,20.38 8,21.17 8,22.12 L 8,31.45 C 8,42.14 16.48,50.92 27.25,51.79 L 27.25,57.12 30.75,57.12 30.75,51.79 C 41.52,50.92 50,42.14 50,31.45 L 50,22.12 C 50,21.17 49.21,20.38 48.25,20.38 Z M 29,43.12 C 35.75,43.12 41.25,37.63 41.25,30.88 L 41.25,13.38 C 41.25,6.62 35.75,1.12 29,1.12 22.25,1.12 16.75,6.62 16.75,13.38 L 16.75,30.88 C 16.75,37.63 22.25,43.12 29,43.12 Z M 29,4.62 C 33.81,4.62 37.75,8.56 37.75,13.38 L 37.75,20.38 20.25,20.38 20.25,13.38 C 20.25,8.56 24.16,4.62 29,4.62 Z M 20.25,22.12 L 37.75,22.12 37.75,30.88 C 37.75,35.69 33.81,39.62 29,39.62 24.16,39.62 20.25,35.69 20.25,30.88 L 20.25,22.12 Z M 20.25,22.12" />
</svg>
