<!DOCTYPE svg PUBLIC "-//W3C//DTD SVG 1.1//EN" "http://www.w3.org/Graphics/SVG/1.1/DTD/svg11.dtd">
<svg version="1.1" id="Layer_1" xmlns="http://www.w3.org/2000/svg" xmlns:xlink="http://www.w3.org/1999/xlink" x="0px" y="0px"
   width="1312.995px" height="1041.019px" viewBox="0 0 1312.995 1041.019" enable-background="new 0 0 1312.995 1041.019"
   xml:space="preserve">
<path d="M1304.203,88.027c-0.835,38.543,9.946,412.317,8.371,508.612C961.713,700.603,655.97,792.708,315.198,894.398
  c-2.583,0.708-1.099-2.651-3.214-2.413c0.692,0.648,0.476,2.204,1.607,2.413c-104.994,33.195-212.119,65.646-312.269,96.058
  c0.092-77.293,1.108-181.452-1.114-253.608C-0.569,711.622,1.013,576.3,1.883,543.015c0.062-2.444,1.318-5.786,1.228-8.179
  c-0.824-21.222-1.274-34.165,0.445-57.18c4.283-0.517,18.544-7.064,19.11-3.148c17.798-9.302,34.59-10.011,50.632-18.503
  c1.997,0.545-1.19,2.448-1.608,3.217c1.856,0.641,4.467-3.811,6.429-5.629c1.642,0.77,3.179,1.643,4.822,2.413
  c-0.01-1.6-2.194-1.025-1.608-3.219c11.198-1.367,13.258-6.44,24.109-5.629c-0.129-0.941-1.465-0.681-2.411-0.805
  c27.753-11.382,59.29-16.986,84.384-23.33c2.253-0.788-1.166-2.147,0.806-3.217c20.867-4.858,35.753-10.014,52.238-16.892
  c0,0.806,0,1.609,0,2.414c25.443-15.292,79.218-24.87,110.906-32.979c21.28-13.154,49.631-14.113,69.918-21.721
  c40.521-11.976,91.739-29.775,117.335-35.393C559.698,301.304,1244.434,108.352,1304.203,88.027z M977.22,326.536
  c-1.873,31.681,1.771,258.692,2.96,297.192c41.251-11.219,65.339-18.451,101.832-29.434c-0.051-18.139,0.348-38.382-0.507-55.73
  c-18.7,3.742-36.852,11.408-52.572,14.528c-2.36-100.215-2.413-164.017-3.662-235.181c-0.073-1.299,0.012-41.693,0.568-73.319
  c-19.077,4.651-31.961,9.336-50.333,14.704C976.366,279.208,975.729,318.04,977.22,326.536z M714.129,635.533
  c-0.219,24.838-0.827,40.435-0.065,68.632c16.098-3.966,34.947-10.284,49.001-15.178c-0.333-59.243-0.959-72.609-1.4-116.793
  c-0.621-61.276-0.327-123.943-2.419-188.275c12.649-4.212,19.294-5.515,39.358-12.386c0.14-22.164-0.018-34.556-1.699-57.063
  c-46.128,14.112-79.986,23.195-133.959,41.042c1.126,19.239,1.614,40.412,3.531,54.525c0.222,1.67,36.473-11.592,44.895-13.05
  C712.949,455.587,714.365,609.09,714.129,635.533z M631.708,564.241c3.093-15.742,1.548-44.336,1.605-59.301
  c0.268-71.277-1.592-117.639-24.713-125.745c-19.824-8.143-47.626,4.626-67.95,10.562c-11.46,3.346-26.845,7.183-26.873,12.188
  c-0.082,13.303-0.675,30.039-0.208,43.24c1.626,46,1.732,95.938,1.855,153.613c0.135,65.073,1.378,85.318,1.372,163.961
  c15.373-2.835,30.773-9.463,47.944-14.008c0.174-67.315-1.027-88.745-1.285-139.65C600.275,599.221,625.808,594.231,631.708,564.241
  z M586.966,441.514c1.282,20.163,3.347,58.831,3.181,85.654c-0.063,10.129-2.962,17.738-27.283,22.832
  c-0.718-37.183-2.971-78.066-2.131-118.212C585.776,424.434,585.38,431.698,586.966,441.514z M368.694,472.667
  c-4.593,36.171-2.539,96.539-2.678,125.334c0.05-0.764,0.742,112.481,0.959,154.184c0.112,20.499,4.875,35.298,19.61,44.53
  c15.412,9.663,68.966-13.499,85.592-20.29c4.306-2.829,7.89-5.317,10.426-11.013c7.691-11.75,6.256-50.257,6.891-113.746
  c0.135-13.377,0.598-27.391,0.243-39.562c-1.753-60.336-3.32-157.299-8.36-176.263c-9.927-24.98-33.88-21.299-62.322-12.969
  c-27.032,7.915-44.284,22.171-49.629,42.246c2.331,1.663-1.257,2.374,2.029,4.819C369.909,468.36,368.956,470.91,368.694,472.667z
   M410.67,538.222c-0.389-22.036,0.833-57.785,4.627-61.611c4.835-5.539,16.575-9.357,25.926-8.86
  c4.643-0.326,5.434,97.24,2.616,174.576c0.326,23.831-1.086,100.771-1.091,100.08c-1.487,9.644-26.521,15.567-28.867,9.834
  C407.964,746,410.789,544.983,410.67,538.222z M299.719,827.911c17.522-4.178,25.266-6.148,41.856-12.252
  c-3.498-186.617-1.323-242.643-2.958-362.396c-8.741-0.139-12.568,2.456-20.599,4.679c-11.044,2.665-16.024,4.282-23.352,6.719
  c0.751,6.147,1.273,106.21-0.271,155.329c-5.768,2.445-13.849,5.765-20.939,6.866c0.113-77.208-1.743-104.028-1.064-156.212
  c-19.796,5.12-27.192,7.934-43.67,12.832c0.156,5.799,0.502,11.797,0.39,17.401c-0.684,33.364,1.792,65.885,0.955,98.588
  c-0.809,31.442,0.193,198.229,0.594,249.465c18.362-4.888,44.472-11.756,44.49-14.617c0.251-40.516-1.226-71.734-1.06-146.271
  c6.338-0.551,16.622-6.625,21.283-6.598C298.229,739.653,298.11,770.925,299.719,827.911z M132.436,559.029
  c32.539-17.69,21.982,26.589,24.415,56.392c19.544-5.165,28.928-7.622,41.624-11.795c0.547-31.555,0.828-77.549-6.987-90.642
  c-12.688-21.248-44.326-4.749-59.636-3.108c-2.094,1.015,1.445,3.92-1.391,3.423c-0.528-2.357-1.927,0.046,0.018-2.749
  c-19.027,4.871-37.248,14.958-41.362,36.124c-2.695,13.843-3.542,44.711-3.22,76.847c-0.86,2.219,1.607,37.904,9.981,49.931
  c9.592,13.788,29.803,27.4,42.295,35.154c18.736,13.575,17.826,36.01,19.816,70.061c0.789,13.496,1.202,37.421-1.456,43.362
  c-1.362,8.087-23.301,13.912-24.318,4.973c-0.897-27.888,0.551-31.102-0.025-53.976c-15.619,5.197-28.124,7.425-46.157,14.017
  c0.173,30.021-9.026,85.986,25.704,94.693c0.708,0.488,2.736-2.406,3.436-1.355c0.937,3.748,13.954-1.211,18.526-1.94
  c19.18-3.058,55.198-14.742,59.793-22.28c9.552-9.059,11.036-54.627,10.108-82.98c-1.17-36.017,0.723-75.791-18.593-98.262
  c-19.665-22.867-57.361-27.991-55.802-68.974C129.354,595.466,127.664,560.907,132.436,559.029z M1103.163,587.873
  c17.384-4.659,32.173-9.575,50.301-15.187c-0.124-57.67-1.312-96.519-0.751-148.23c1.208,1.324,24.42,31.774,24.617,34.85
  c2.151,33.406,0.491,63.727,2.102,104.961c15.775-2.998,29.607-8.156,47.985-13.763c-0.303-69.346,0.289-87.218-1.584-131.079
  c-9.626-8.52-24.807-30.175-35.702-40.252c11.76-15.419,34.677-57.189,34.684-58.667c-0.007-44.307-0.159-96.259-2.545-134.88
  c-16.449,3.236-33.102,8.403-48.823,12.968c0.681,39.638,1.928,63,1.405,106.272c-7.677,12.444-15.396,28.363-23.779,37.367
  c-2.249-43.459-0.191-94.372-3.729-135.678c-16.887,4.247-33.834,9.622-49.458,14.793
  C1098.587,233.796,1100.609,479.547,1103.163,587.873z M950.295,330.878c-0.131-6.108-42.547-50.307-48.628-48.559
  c-14.288,4.114-33.871,9.084-46.879,15.08c-8.835,18.168-25.194,44.904-35.408,66.271c-0.931,1.94,1.313,136.199,4.152,308.296
  c20.063-6.451,31.871-10.31,50.476-15.915c-0.28-50.405-2.334-103.326-2.23-136.266c0.006-3.165,17.039-5.914,29.917-10.479
  c1.783,59.349,0.736,55.41,2.484,138.711c19.321-5.124,35.271-9.252,49.613-13.637C952.372,515.339,952.583,441.343,950.295,330.878
  z M897.996,355.578c0.491,37.179,1.035,63.272,0.458,100.089c-8.944,3.165-16.304,6.392-27.907,9.119
  c-0.043-32.528,0.675-68.12,0.817-101.366C881.184,361.191,887.639,357.657,897.996,355.578z"/>
<path d="M991.206,118.867c-24.974-23.796-58.098-44.531-95.112-62.261c-41.858-24.3-138.129-61.167-257.84-56.141
  c-1.17,0.77-4.331,6.14-5.743,4.006c0.327-1.549,3.113-0.635,2.41-3.217c-17.066,3.791-31.829-2.883-61.964,5.497
  c-76.182,13.406-139.235,43.607-153.201,51.531C343.584,98.532,266.56,168.465,225.541,234.662
  c-23.794,38.391-50.101,84.183-64.275,139.103l-35.799,9.654c-2.913,0.921-5.829,1.762-8.77,2.369c-0.319,1.383,1.19,2.062,0,2.412
  c-6.731-1.257-12.472,0.62-20.897,3.219c-3.74,1.152-53.242,17.898-53.042,17.025c-8.314,2.967-28.72,8.835-39.899,13.491
  c2.695,9.767,0.42,18.435,0.42,33.934c73.391-22.903,552.272-168.56,589.185-179.479c5.289,0.336,19.376-2.878,18.482-6.435
  c14.354,0.49,33.782-5.573,48.221-12.871c0.126,0.947,117.34-30.869,180.021-54.697c102.148-30.657,218.713-62.436,329.503-98.941
  c42.14-13.454,87.397-24.091,135.933-39.717c0-11.731,0.419-20.109,0.419-35.191C1190.866,56.312,1102.959,87.846,991.206,118.867z
   M535.281,52.335c-0.011,0.137,0.002,0.253-0.014,0.397c-0.601,0.162-0.983,0.106-1.271-0.049L535.281,52.335z M489.654,67.194
  l0.818-0.376c0.127,0.417,0.398,0.989,1.399,2.006c0.146,0.683-0.315,0.755-0.806,0.801c-0.535,0-1.071,0-1.606,0
  C490.072,69.053,490.17,67.948,489.654,67.194z M912.182,139.073c-36.433-25.792-94.48-59.711-148.669-73.201
  c-28.301-7.042-53.46-6.931-81.174-8.044c-49.1-1.971-128.642,5.107-177.609,30.567c-0.34-3.435-8.051,2.29-8.79,3.115
  c0.997-1.679-6.691,0.382-5.678,2.517c-7.952,0.385-22.701,6.691-26.52,11.26c-32.956,8.838-75.206,39.927-105.278,58.721
  c0,1.341,0,2.682,0,4.024c-0.942-0.132-0.68-1.468-0.806-2.414c-12.818,13.849-30.064,23.205-37.771,38.611
  c-24.157,24.139-51.639,62.569-67.375,93.308c-11.756,13.143-18.979,34.311-24.781,53.896c-1.182,0.49-3.571,2.692-5.932,5.408
  c-2.521,1-4.658,2.27-6.254,4.009c-0.023-0.977-0.128-1.431-0.368-1.625l-11.727,3.164c7.74-28.478,18.036-47.993,28.842-76.382
  c9.622-13.936,15.655-24.575,25.715-38.61c-5.522-1.398,6.639-2.093,1.606-4.825c1.838-0.747,3.885-0.466,2.411-4.023
  c4.676-2.649,9.078-6.893,9.646-12.066c13.683-12.49,21.007-21.641,31.341-37c0.263-1.205-0.418-1.459-1.278-1.539l1.099-1.105
  c0.906,0.308,1.734,1.103,1.788,1.837c1.402-0.74,1.773-2.514,1.606-4.827c9.585-2.552,11.799-12.015,20.897-15.282
  c-0.449-1.817-1.252,0.974-2.411-0.805c0.254-0.417,2.485-1.246,3.215,0c0.428-3.333,7.321-3.551,6.429-8.045
  c7.919-1.378,17.274-13.439,30.54-20.914c-0.59-1.432-1.462-0.116-2.414,0c6.203-4.225,17.397-8.295,21.881-14.48
  c-0.06,0-0.122,0.003-0.18,0.002c0.065-0.013,0.143-0.032,0.213-0.047c0.186-0.256,0.431-0.493,0.592-0.759
  c0.574,0.198,0.615,0.391,0.419,0.539c3.87-0.871,8.936-2.588,10.026-7.779c3.39-0.136-0.013,1.237,0,2.415
  c2.942-2.686,7.419-1.11,8.841-6.436c2.217,3.79,1.296-1.506,4.021-1.607c-0.729,2.782,6.851-3.834,8.838-3.219
  c-0.281-1.057-1.413-1.263-1.609-2.414c-0.94,0.13-0.674,1.466-0.801,2.414c-0.493-0.234-3.094-2-3.213,0
  c-1.885-2.562,4.734-2.705,5.624-3.218c0.942,0.13,0.681,1.467,0.804,2.414c3.813-1.245,6.381-2.375,10.448-4.827
  c-0.676-0.932-1.062-2.155-0.803-4.02c0.748,0.456,1.219,2.235,1.606,0.803c2.196,0.726-2.442,1.798,0,3.217
  c3.51-3.667,7.73-4.041,13.662-6.433c0.047-2.444-2.85-1.943-2.41-4.784l0.049-0.025c11.96,5.454,25.441-6.202,29.686-10.477
  c-0.351,1.989,4.949,2.404,5.625-1.609c2.653,1.923,8.582-3.353,11.687-6.713c0-0.396,0.242-0.669,1.174-1.331
  c-0.317,0.383-0.714,0.835-1.174,1.331c0.005,0.458,0.337,1.083,0.37,2.691c5.674-4.485,16.39-7.686,25.72-10.456
  c-0.425-0.648-0.84-1.307-0.804-2.415c25.747-5.111,46.098-9.025,84.052-19.64c147.339-14.523,247.777,28.38,319.792,73.178
  c1.577,3.27,12.866,9.649,17.273,10.008c0.516,3.026,5.366,5.138,8.354,8.475l-24.487,7.935
  C915.416,140.065,913.385,139.009,912.182,139.073z M653.971,166.99c-29.798,8.817-49.958,16.156-83.153,25.76
  c-32.683,11.271-51.402,17.75-84.886,29.448c-4.675,16.938-16.61,22.8-24.588,26.26c-11.604,5.758-35.508,7.08-40.298-10.469
  c14.422-5.041,17.154-5.792,30.44-11.215c-2.568-9.433-6.158-20.833-8.978-26.522c-11.819,3.007-17.261,6.259-32.016,11.213
  c-3.201-36.379,46.243-45.435,63.558-26.406c36.164-10.33,70.544-21.76,102.765-31.886c21.526-6.767,46.672-15.233,64.324-20.669
  c8.542-2.628,12.838-5.517,18.331-12.351c1.497-0.331,3.337-0.9,1.358-0.634c10.577-8.853,27.359-16.105,47.738,0.642
  c2.696,1.772,5.139,5.945,7.659,12.432c7.262,33.276-21.95,52.867-49.441,39.833c0.021-0.67-4.671-1.704-4.652-2.379
  C658.672,167.996,657.668,166.219,653.971,166.99z M672.762,131.909c-2.267,0.98-4.879-1.427-6.384,0.132
  c-0.894,0.931,3.177,4.941,2.452,6.043c-0.962,1.44-4.407,2.855-5.263,4.569c3.022,0.179,1.92,2.777,5.354,3.398
  c-1.931,1.623-3.33,3.159-4.368,6.588c2.71,0.283,3.537,1.042,7.347-0.74c0.808,2.111,0.306,5.205-0.131,8.482
  c3.619-1.992,5.714-3.941,7.429-3.461c1.733,0.49,2.095,3.727,4.317,6.511c2.363-1.926,2.322-4.336,3.425-6.613
  c1.347,0.865,4.223,2.84,7.129,3.863c-0.814-1.634-0.576-2.79-1.073-6.837c3.451,0.305,3.855,0.488,6.286,1.213
  c-0.779-3.471-0.167-3.037-2.041-7.278c3.062-0.754,4.018-1.149,6.27-3.077c-2.231-2.683-5.36-2.131-6.196-5.788
  c2.684-1.585,3.446-3.807,5.272-6.291c-3.427-0.591-4.901-0.241-8.045-0.538c-0.095-4.194,1.014-4.157-0.131-7.961
  c-3.539,1.578-4.377,2.589-7.225,3.711c-1.174-1.237-2.502-4.161-3.263-5.784c-2.834,0.633-2.743,3.918-4.972,5.625
  c-3.586-2.825-4.205-1.441-6.73-2.703C671.405,128.3,672.191,130.005,672.762,131.909z M574.061,168.294
  c-34.195,11.912-71.039,18.376-69.298,25.014c2.371,5.165,117.606-32.096,116.715-37.17
  C619.143,151.071,588.151,164.893,574.061,168.294z"/>
<path d="M1312.995,645.239c-0.125-12.21-0.274-19.273-0.838-31.005c-221.734,67.231-426.146,127.983-645.758,194.363
  C443.597,875.942,221.89,942.691,2.44,1008.89c0,9.386,1.674,21.897,1.674,31.284c87.063-28.769,196.832-60.123,291.367-87.617
  l34.729-10.857c-0.179-0.127,3.999-1.252,3.999-1.252c1.375-0.426,6.964-2.171,13.312-4.158
  c12.082,10.474,27.237,18.83,44.028,27.687c14.939,7.89,28.499,15.982,41.747,23.688c95.989,55.864,274.861,81.138,437.267,9.078
  c28.011-8.826,52.682-26.559,77.435-43.151c47.05-31.536,84.024-62.764,117.019-104.371c36.993-46.643,70.047-94.677,88.577-156.204
  C1209.78,676.716,1241.816,666.46,1312.995,645.239z M882.045,948.026c-43.937,21.589-88.841,35.965-139.032,45.847
  c-58.652,11.552-127.303,8.397-192.073-4.017c-60.885-11.677-89.879-23.041-161.373-66.72l11.146-3.483l1.189-0.064
  c4.33-1.402,8.697-2.764,13.031-4.156c25.803,18.838,58.23,33.465,93.411,42.781c36.165,9.574,73.696,18.383,111.708,20.915
  c58.39,3.887,134.471-6.837,189.665-24.936c30.34-9.953,60.72-23.269,87.63-35.798c67.94-31.626,152.763-129.69,181.42-203.633
  l17.56-5.031c0.01-0.027,0.022-0.047,0.029-0.075c0.235-0.033,0.418-0.083,0.642-0.116c0,0,2.538-0.744,6.389-1.872
  c-1.489,4.216-3.783,8.728-5.285,14.323C1052.362,813.812,969.617,904.99,882.045,948.026z M804.846,824.302
  c4.662,3.362,6.361,15.361,6.853,25.844c0.283,6.121,1.271,23.379,0.98,25.098c-0.811,4.766-1.639,8.701-4.662,11.102
  c-1.444,1.148-5.534,2.682-7.555,3.641c-2.104,0.99-4.984,1.498-7.083,2.263c-4.193,1.532-8.782,3.091-12.676,3.803
  c-0.986,0.178-2.282,0.806-3.59,0.895c-1.85,0.125-3.773,0.997-5.617,0.942c-4.951-0.142-8.327-3.141-9.293-6.761
  c-1.251-4.699-1.416-10.509-1.486-16.899c-0.066-6.338-0.838-13.742-0.485-20.147c0.25-4.568,0.942-13.725,3.611-17.291
  c2.336-3.127,8.367-5.89,13.407-7.357C787.599,826.43,801.353,820.944,804.846,824.302z M783.585,840.256
  c-4.502,1.476-8.078,3.177-8.412,7.461c-0.353,4.465-0.413,11.21,0.03,16.334c0.635,7.225,0.375,16.699,2.383,18.058
  c4.762,1.795,9.411-0.336,13.648-1.921c1.74-0.646,3.304-1.705,4.243-2.275c4.804-2.952,3.626-8.167,3.775-12.165
  c0.365-9.48-0.556-27.17-2.571-27.961C792.458,836.986,788.253,838.727,783.585,840.256z M891.49,795.296
  c2.609,0.096,0.785,13.963,0.28,20.15c-0.817,9.923-2.975,18.075-4.249,27.941c-0.354,2.79-0.768,6.538-1.367,9.978
  c-0.807,4.607,0.037,7.138-2.121,9.664c-0.19,1.026-7.272,3.27-9.043,2.799c-2.793-2.984-4.383-6.654-5.964-10.635
  c-1.638-4.122-4.286-10.477-4.475-10.262c-1.7,0.56-6.12,16.009-7.083,25.936c-0.47,1.119-10.628,5.319-12.399,3.266
  c-2.695-3.95-8.846-28.179-10.524-35.615c-1.93-8.562-4.488-14.499-5.228-22.885c-0.752-2.798,9.601-5.222,10.812-4.012
  c3.354,5.411,10.856,24.633,11.274,24.351c0.845-0.488,2.604-20.933,4.101-27.709c0.491-2.588,8.857-5.132,9.882-3.545
  c1.046,1.618,11.047,25.847,11.745,25.563c0.556-0.487,2.586-30.174,4.476-32.093C883.687,796.085,887.488,795.174,891.49,795.296z
   M739.712,907.037c-0.309,3.383-12.518,6.458-13.257,3.288c-0.321-1.363-0.242-4.12-0.47-5.878
  c-0.675-5.262-0.304-12.726-0.172-16.69c-8.043,1.948-15.413,4.544-23.2,6.744c-0.146,9.069,0.773,16.386-0.458,25.278
  c-0.308,1.372-11.123,5.197-11.499,2.161c-1.678-8.812-1.343-15.499-1.382-23.887c-0.064-13.312-0.195-27.038,0.648-39.799
  c0.268-2.04,6.328-4.184,11.264-4.184c3.545,0.651,1.171,15.134,1.958,25.656c7.167-1.829,15.086-4.451,22.323-6.208
  c0.812-7.884-2.002-26.823,1.445-28.13c1.727-0.722,7.272-2.715,9.046-2.519c3.078-0.839,2.806,13.987,2.987,21.453
  C739.31,879.605,740.863,892.912,739.712,907.037z M635.027,887.024c-1.734,0.825-1.37,7.632,0.316,10.155
  c0.657,1.96,6.603-0.387,10.11-0.996c5.458-0.958,15.337-4.603,18.223-1.521c2.006,2.14,1.866,7,2.155,11.232
  c0.398,5.837,1.076,10.754,0.666,16.382c-1.511,9.888-9.261,11.303-18.568,14.087c-5.332,1.598-10.885,3.806-15.618,4.754
  c-3.387,0.681-7.223,1.686-7.872-0.364c-0.835-2.632-1.301-7.647-0.281-9.801c0.6-1.273,3.283-2.662,4.874-3.197
  c5.971-2.011,16.134-3.503,20.499-7.484c1.936-2.898,2.173-8.782,0.241-12.103c-1.001-3.155-25.711,9.442-27.128-0.151
  c-0.977-7.508-1.843-12.05-1.653-19.889c0.061-2.594,0.281-5.903,1.395-7.746c1.107-1.823,2.332-4.385,6.62-5.688
  c7.154-2.183,17.266-5.664,24.607-7.469c1.552-0.375,3.163-0.894,4.276-0.92c3.118-0.06,4.691,7.868,2.952,10.953
  c-1.614,2.859-9.218,3.748-13.038,4.883C643.103,883.542,638.375,884.968,635.027,887.024z"/>
</svg>
